<?xml version="1.0" encoding="UTF-8" standalone="no"?>
<!DOCTYPE svg PUBLIC "-//W3C//DTD SVG 1.1//EN" "http://www.w3.org/Graphics/SVG/1.1/DTD/svg11.dtd">
<svg width="100%" height="100%" viewBox="0 0 680 680" version="1.1" xmlns="http://www.w3.org/2000/svg" xmlns:xlink="http://www.w3.org/1999/xlink" xml:space="preserve" xmlns:serif="http://www.serif.com/" style="fill-rule:evenodd;clip-rule:evenodd;stroke-linejoin:round;stroke-miterlimit:2;">
    <g transform="matrix(6.93878,0,0,6.2963,-485.714,-635.926)">
        <rect x="70" y="101" width="98" height="108" style="fill:rgb(197,219,255);"/>
    </g>
    <g transform="matrix(0.84375,0,0,0.84375,124,90.25)">
        <path d="M256,304C317.6,304 368,253.6 368,192C368,130.4 317.6,80 256,80C194.4,80 144,130.4 144,192C144,253.6 194.4,304 256,304ZM256,344C181.8,344 32,381.8 32,456L32,512L480,512L480,456C480,381.8 330.2,344 256,344Z" style="fill:rgb(130,174,255);fill-rule:nonzero;"/>
    </g>
</svg>
